<?xml version="1.0" encoding="utf-8"?>
<!-- Generator: Adobe Illustrator 19.2.1, SVG Export Plug-In . SVG Version: 6.00 Build 0)  -->
<svg version="1.1" id="Laag_1" xmlns="http://www.w3.org/2000/svg" xmlns:xlink="http://www.w3.org/1999/xlink" x="0px" y="0px"
	 viewBox="0 0 1043.3 367.8" style="enable-background:new 0 0 1043.3 367.8;" xml:space="preserve">
<style type="text/css">
	.st0{fill:#003399;}
	.st1{fill:#0033A0;}
	.st2{fill:#FFFFFF;}
	.st3{fill:#FF5000;}
</style>
<title>VUB-LOGO-BLACK</title>
<polygon class="st0" points="501.7,117.9 530.7,47.9 523.1,47.9 498.3,109.2 473.8,47.9 466.1,47.9 495,117.9 "/>
<path class="st0" d="M548.5,54.3h11.1c5.5,0,11.2,0,15.8,3.3c4.1,2.9,6.5,7.5,6.6,12.5c0.1,6.1-3.5,11.7-9.1,14.2
	c-4.6,2.1-10.3,1.9-15.2,1.9h-2.1l23.8,31.7h8.7l-19.7-26.1c11.4-0.3,20.6-9.6,20.6-21c0-8.1-3.8-15.3-10.9-19.4
	c-5.9-3.3-13.3-3.4-19.9-3.4h-16.6v70h7L548.5,54.3L548.5,54.3z"/>
<rect x="601.7" y="47.9" class="st0" width="7" height="70"/>
<path class="st0" d="M638.2,119.1c5.8,0.1,11.3-2.4,15-6.9c3.7-4.6,3.4-8.5,3.8-14V47.9h-7v48.2c0,2.9,0.1,6.5-0.8,9.3
	c-1.6,4.3-5.7,7.1-10.2,7c-6.6,0-11.9-4.4-12.4-11.1h-6.9C619.8,111.4,628.2,119.3,638.2,119.1z"/>
<polygon class="st0" points="712.2,111.6 681,111.6 681,85.8 711.2,85.8 711.2,79.5 681,79.5 681,54.3 712.2,54.3 712.2,47.9 
	674,47.9 674,117.9 712.2,117.9 "/>
<path class="st0" d="M513,190.8c0,5.5-0.5,11.1-3.9,15.6c-5.5,7.1-15.8,8.4-22.9,2.9c-1.4-1.1-2.6-2.4-3.6-3.9
	c-2.8-4.4-3.2-9.7-3.2-14.7v-42.5h-7v42.5c0,7.4,0.8,14.4,5.6,20.4c4.6,5.4,11.3,8.4,18.3,8.3c7.2,0.1,14.1-3.2,18.6-8.9
	c4.5-5.9,5.2-12.7,5.2-19.8v-42.5h-7L513,190.8L513,190.8z"/>
<polygon class="st0" points="592.8,148.3 585.8,148.3 585.8,206.3 546.5,148.3 537.1,148.3 537.1,218.2 544.1,218.2 544.1,156.7 
	585.8,218.2 592.8,218.2 "/>
<rect x="609.8" y="148.3" class="st0" width="7" height="70"/>
<polygon class="st0" points="659.8,209.5 635.3,148.3 627.6,148.3 656.5,218.2 663.1,218.2 692.2,148.3 684.5,148.3 "/>
<polygon class="st0" points="741.2,154.6 741.2,148.3 703,148.3 703,218.2 741.2,218.2 741.2,211.9 710,211.9 710,186.1 
	740.2,186.1 740.2,179.8 710,179.8 710,154.6 "/>
<path class="st0" d="M803.8,171.1c0-8.1-3.8-15.3-10.9-19.4c-5.9-3.3-13.3-3.4-19.9-3.4h-16.7v70h7v-63.7h11.1
	c5.5,0,11.2,0,15.8,3.3c4,2.9,6.5,7.5,6.5,12.5c0.1,6.1-3.5,11.7-9.1,14.2c-4.6,2.1-10.3,1.9-15.2,1.9h-2.1l23.8,31.7h8.7
	l-19.7-26.1C794.6,191.8,803.7,182.5,803.8,171.1z"/>
<path class="st0" d="M847.8,184.3c-4.1-3.7-8.4-4.6-13.5-6c-6.8-1.9-13.8-3.9-13.8-12.3c-0.1-6.7,5.3-12.1,11.9-12.2c0,0,0,0,0.1,0
	c7.2,0,12.3,5.1,12.8,12.2h7.3c0.1-10.7-8.6-18.9-19.2-18.9c-11,0-19.9,7.6-19.9,18.8c-0.1,5,2.1,9.8,5.9,13.1c3.5,3,8,4.2,12.3,5.3
	c4,1,7.6,2,10.8,4.6c3,2.4,4.8,6.1,4.8,9.9c0,8-6.5,13.8-14.5,13.8c-7.7-0.1-14-6.4-14-14.1h-7.5c-0.1,12.2,9.8,20.8,21.7,20.8
	c11.4,0,21.3-8.9,21.3-20.4C854.4,193.4,852,188.1,847.8,184.3z"/>
<rect x="866.3" y="148.3" class="st0" width="7" height="70"/>
<polygon class="st0" points="883.8,154.6 899.9,154.6 899.9,218.2 906.9,218.2 906.9,154.6 922.8,154.6 922.8,148.3 883.8,148.3 "/>
<polygon class="st0" points="933.3,218.2 971.6,218.2 971.6,211.9 940.4,211.9 940.4,186.1 970.6,186.1 970.6,179.8 940.4,179.8 
	940.4,154.6 971.6,154.6 971.6,148.3 933.3,148.3 "/>
<rect x="986.8" y="148.3" class="st0" width="7" height="70"/>
<polygon class="st0" points="1004.3,148.3 1004.3,154.6 1020.4,154.6 1020.4,218.2 1027.4,218.2 1027.4,154.6 1043.3,154.6 
	1043.3,148.3 "/>
<path class="st0" d="M505.2,281.2c4.8-3.4,7.8-8,7.8-14c-0.1-6.1-3.2-11.7-8.2-15.1c-4.8-3.1-10.3-3.5-15.9-3.5h-16.4v70h16.5
	c7-0.1,13.1,0.1,19.2-3.8c5.4-3.5,8.6-9.6,8.6-16C516.7,290.8,512.5,284.2,505.2,281.2z M479.4,255h8.1c4.2-0.2,9.2-0.1,12.8,2.1
	c3.3,2.1,5.4,5.7,5.6,9.7c0,4-2.2,7.7-5.7,9.8c-4,2.2-8.8,2.1-13.3,2.1h-7.6L479.4,255L479.4,255z M502.8,310.2
	c-4.3,2.2-10,2.2-14.8,2.1h-8.6v-27.4h7.4c4.6,0,9.8-0.1,14.1,1.4c5.4,1.8,8.9,6.9,8.7,12.6C509.5,303.6,506.9,307.9,502.8,310.2
	L502.8,310.2z"/>
<path class="st0" d="M576.8,271.5c0-8.1-3.8-15.3-10.9-19.4c-5.9-3.3-13.3-3.4-19.9-3.4h-16.7v70h7V255h11.1c5.5,0,11.2,0,15.8,3.3
	c4,2.9,6.5,7.5,6.5,12.5c0.1,6.1-3.5,11.7-9.1,14.2c-4.6,2.1-10.3,1.9-15.2,1.9h-2.1l23.8,31.7h8.7l-19.7-26.1
	C567.6,292.2,576.8,282.9,576.8,271.5z"/>
<path class="st0" d="M630.2,291.1c0,5.5-0.5,11.1-3.9,15.6c-5.5,7.1-15.8,8.4-22.9,2.9c-1.4-1.1-2.6-2.4-3.6-3.9
	c-2.8-4.4-3.2-9.7-3.2-14.7v-42.5h-7v42.5c0,7.4,0.8,14.4,5.6,20.4c4.6,5.4,11.3,8.4,18.3,8.3c7.2,0.1,14.1-3.2,18.6-8.9
	c4.5-5.9,5.2-12.7,5.2-19.8v-42.5h-7L630.2,291.1L630.2,291.1z"/>
<path class="st0" d="M685.5,284.7c-4.1-3.7-8.4-4.5-13.5-6c-6.8-1.9-13.8-3.9-13.8-12.3c-0.1-6.7,5.3-12.1,11.9-12.2c0,0,0,0,0.1,0
	c7.2,0,12.3,5.1,12.8,12.2h7.3c0.1-10.7-8.6-18.9-19.2-18.9c-11,0-19.9,7.6-19.9,18.8c-0.1,5,2.1,9.8,5.9,13.1c3.5,3,8,4.2,12.3,5.3
	c4,1,7.6,2,10.8,4.6c3,2.4,4.8,6.1,4.8,9.9c0,8-6.5,13.8-14.5,13.8c-7.7-0.1-14-6.4-14-14.1h-7.5c-0.1,12.2,9.8,20.8,21.7,20.8
	c11.4,0,21.3-8.9,21.3-20.5C692.1,293.8,689.7,288.4,685.5,284.7z"/>
<path class="st0" d="M735.3,284.7c-4.1-3.7-8.4-4.5-13.5-6c-6.8-1.9-13.8-3.9-13.8-12.3c-0.1-6.7,5.3-12.1,11.9-12.2c0,0,0,0,0.1,0
	c7.2,0,12.3,5.1,12.8,12.2h7.3c0.1-10.7-8.6-18.9-19.2-18.9c-11,0-19.9,7.6-19.9,18.8c-0.1,5,2.1,9.8,5.9,13.1c3.5,3,8,4.2,12.3,5.3
	c4,1,7.6,2,10.8,4.6c3,2.4,4.8,6.1,4.8,9.9c0,8-6.5,13.8-14.5,13.8c-7.7-0.1-14-6.4-14-14.1h-7.4c-0.1,12.2,9.8,20.8,21.7,20.8
	c11.4,0,21.3-8.9,21.3-20.5C741.9,293.7,739.5,288.4,735.3,284.7z"/>
<polygon class="st0" points="753.8,318.6 792.1,318.6 792.1,312.3 760.8,312.3 760.8,286.5 791,286.5 791,280.2 760.8,280.2 
	760.8,255 792.1,255 792.1,248.6 753.8,248.6 "/>
<polygon class="st0" points="814.2,248.6 807.2,248.6 807.2,318.6 843.2,318.6 843.2,312.3 814.2,312.3 "/>
<g>
	<rect x="34.6" class="st1" width="368" height="368"/>
	<path class="st2" d="M363.6,175.9c12.6-6,18.8-19.3,18.8-32.8c0-16-10-31.4-24.2-38.6C343.8,97.3,328,98,312.5,98l-39.9,0.1
		l0,171.7h51.8c16.5-0.5,33.9-1.4,47.7-11.4c13.3-10,20.9-24.2,20.9-40.9C392.9,198,382.4,182,363.6,175.9 M304.5,128.9l14.5,0
		c6.7,0,16.2-0.4,20.9,1.6c6.3,2.6,10.7,8.1,10.7,15.1c0,6.5-3.7,13-9.8,15.8c-6,2.8-14.9,2.6-21.6,2.6l-14.7,0V128.9z M352.7,232.9
		c-8.4,5.6-17,6-26.3,6l-21.9,0V195l22.6,0c7.7,0,15.3-0.2,22.6,3.5c7.4,4.2,11.4,9.3,11.4,17.7C361,223.4,358.5,228.9,352.7,232.9"
		/>
	<polygon class="st3" points="0,98.1 34.6,189.2 34.6,98.1 	"/>
	<path class="st2" d="M263,98.1h-30.8v116.1c-0.1,5.7-0.8,11.2-3.3,16.3c-4.2,7.3-11.9,12.6-20.9,13.6c-0.3,0-0.6,0.1-0.9,0.1
		c-0.8,0.1-1.7,0.1-2.5,0.1h0c-0.8,0-1.7,0-2.5-0.1c-0.3,0-0.6-0.1-0.9-0.1c-9.1-1.1-16.8-6.3-20.9-13.6c-2.6-5.1-3.2-10.6-3.3-16.3
		V98.1l-29.4,0l-9.6,0c-9.3,0-17.2,6.2-19.7,14.7c-0.1,0.2-0.1,0.4-0.1,0.4L79.6,225.1h-0.1l-45-126.9v91.1l29.8,80.6h31l50.1-138.6
		l0.4-1.1h0.3v77.6c0,12.3,0.8,24.2,5.7,34.8c9.1,18,28,30.6,50.1,31.6c0.8,0,1.7,0.1,2.5,0.1h0c0.9,0,1.7,0,2.5-0.1
		c22.1-0.9,41.1-13.5,50.1-31.6c5-10.6,5.7-22.5,5.7-34.8V98.1z"/>
</g>
</svg>
