<?xml version="1.0" encoding="UTF-8"?>
<svg viewBox="0 0 136 48" version="1.1" xmlns="http://www.w3.org/2000/svg" xmlns:xlink="http://www.w3.org/1999/xlink">
    <title>01 Core/01 Logos/VUB Long</title>
    <g id="🌔-03-Organisms---Footer" stroke="none" stroke-width="1" fill="none" fill-rule="evenodd">
        <g id="04-Organisms/02-Footer/1-Desktop" transform="translate(-205.000000, -259.000000)">
            <g id="01-Core/01-Logos/VUB-Long" transform="translate(205.000000, 259.000000)">
                <g id="01-Core/01-Logos/VUB-Icon" transform="translate(61.152000, 6.462500)" fill="#FFFFFF" fill-rule="nonzero">
                    <path d="M10.2765181,0.798933018 L11.6496787,0.798933018 C12.3303422,0.798933018 13.0346113,0.798933018 13.6096994,1.21630958 C14.102632,1.56217184 14.4194819,2.18219322 14.4194819,2.79037948 C14.4194819,3.57747739 14.0087047,4.24527989 13.2928495,4.57918113 C12.7176995,4.84150513 12.0135542,4.817709 11.4032744,4.817709 L11.1450362,4.817709 L14.0907982,8.8125 L15.1706528,8.8125 L12.7294714,5.52126864 C14.1378238,5.4855115 15.288,4.31679418 15.288,2.87391775 C15.288,1.84835492 14.8185492,0.942087512 13.9383212,0.429274624 C13.2105702,0.0118980648 12.2952123,0 11.4736579,0 L9.408,0 L9.408,8.8125 L10.2765181,8.8125 L10.2765181,0.798933018 Z M17.052,8.8125 L18.228,8.8125 L18.228,0 L17.052,0 L17.052,8.8125 Z M22.3379961,8.8125 C23.0645029,8.8125 23.7551749,8.53120525 24.2197092,7.95698535 C24.684055,7.3944577 24.6483458,6.90233108 24.696,6.22269524 L24.696,0 L23.8147112,0 L23.8147112,5.96484688 C23.8147112,6.32817304 23.8266562,6.7734069 23.7075206,7.11328668 C23.5050845,7.65230607 23.0049037,7.98049359 22.4213595,7.98049359 C21.5876621,7.98049359 20.9208173,7.42965821 20.8612809,6.60940593 L19.992,6.60940593 C20.0277092,7.86326167 21.051835,8.8125 22.3379961,8.8125 M31.164,8.01356698 L27.3216429,8.01356698 L27.3216429,4.76999084 L31.035903,4.76999084 L31.035903,3.97099487 L27.3216429,3.97099487 L27.3216429,0.798933018 L31.164,0.798933018 L31.164,0 L26.46,0 L26.46,8.8125 L31.164,8.8125 L31.164,8.01356698 Z M6.19087485,18.1867397 C6.19087485,18.8664422 6.13249633,19.557837 5.71162797,20.1203686 C5.34919984,20.6242529 4.72968408,20.9054878 4.12183168,20.9054878 C3.44381399,20.9054878 2.80084808,20.5774217 2.43848166,20.0031977 C2.09950367,19.4640508 2.04106344,18.8078568 2.04106344,18.1867397 L2.04106344,12.925 L1.176,12.925 L1.176,18.1867397 C1.176,19.100784 1.26949202,19.967997 1.86568106,20.7062849 C2.41509323,21.3742331 3.25676824,21.7375 4.12183168,21.7375 C5.01022184,21.7375 5.87528529,21.3507866 6.4130341,20.6359452 C6.97410963,19.9094734 7.056,19.0657069 7.056,18.1867397 L7.056,12.925 L6.19087485,12.925 L6.19087485,18.1867397 Z M15.876,12.925 L14.9879819,12.925 L14.9879819,20.2349551 L10.0200724,12.925 L8.82,12.925 L8.82,21.7375 L9.70808145,21.7375 L9.70808145,13.9863124 L14.9879819,21.7375 L15.876,21.7375 L15.876,12.925 Z M18.228,21.7375 L19.404,21.7375 L19.404,12.925 L18.228,12.925 L18.228,21.7375 Z M24.9771307,20.6404386 L21.6275666,12.925 L20.58,12.925 L24.5244869,21.7375 L25.4297062,21.7375 L29.4,12.925 L28.3525017,12.925 L24.9771307,20.6404386 Z M35.28,13.7239273 L35.28,12.925 L30.576,12.925 L30.576,21.7375 L35.28,21.7375 L35.28,20.9385097 L31.4375927,20.9385097 L31.4375927,17.6948938 L35.1519013,17.6948938 L35.1519013,16.8959665 L31.4375927,16.8959665 L31.4375927,13.7239273 L35.28,13.7239273 Z M42.924,15.7988972 C42.924,14.7733417 42.4545393,13.8670178 41.5743547,13.3542716 C40.8467123,12.936898 39.9311493,12.925 39.1096395,12.925 L37.044,12.925 L37.044,21.7375 L37.9124744,21.7375 L37.9124744,13.7239273 L39.285664,13.7239273 C39.9664037,13.7239273 40.6705638,13.7239273 41.245726,14.1413009 C41.7386071,14.4870977 42.0555256,15.1073035 42.0555256,15.7153596 C42.0555256,16.5024518 41.6447397,17.1702496 40.9288075,17.5041484 C40.3537692,17.7664705 39.6494852,17.7426746 39.0392545,17.7426746 L38.7810108,17.7426746 L41.7269588,21.7375 L42.8066503,21.7375 L40.3654175,18.4461663 C41.7738615,18.4104094 42.924,17.2417633 42.924,15.7988972 M48.5876995,17.4581206 C48.0865116,17.0082429 47.5503112,16.9044203 46.9325794,16.7314232 C46.0932665,16.5006995 45.2306941,16.2584671 45.2306941,15.2318715 C45.2306941,14.4244908 45.8718085,13.7438894 46.7110599,13.7438894 C47.5968919,13.7438894 48.2263765,14.3667642 48.2845869,15.2318715 L49.1821102,15.2318715 C49.1938631,13.9284562 48.1214009,12.925 46.815974,12.925 C45.4638434,12.925 44.3681832,13.8477121 44.3681832,15.2203627 C44.3681832,15.8316678 44.6129007,16.4084466 45.0908906,16.8121674 C45.5221768,17.18124 46.0699454,17.3197717 46.6061458,17.4581206 C47.0957039,17.5850217 47.5386199,17.7003531 47.9349553,18.0233297 C48.2963398,18.31178 48.5294276,18.7730447 48.5294276,19.2344921 C48.5294276,20.2149307 47.7251271,20.9185497 46.7460107,20.9185497 C45.7785857,20.9185497 45.0442485,20.1341866 45.0209274,19.1999048 L44.100083,19.1999048 C44.0884532,20.687826 45.3006573,21.7375 46.7693318,21.7375 C48.1681046,21.7375 49.392,20.6532387 49.392,19.2460008 C49.392,18.5654604 49.1005787,17.8964286 48.5876995,17.4581206 M51.156,21.7375 L52.332,21.7375 L52.332,12.925 L51.156,12.925 L51.156,21.7375 Z M54.096,13.7239273 L56.0369688,13.7239273 L56.0369688,21.7375 L56.8818746,21.7375 L56.8818746,13.7239273 L58.8,13.7239273 L58.8,12.925 L54.096,12.925 L54.096,13.7239273 Z M60.564,21.7375 L65.268,21.7375 L65.268,20.9385097 L61.4256542,20.9385097 L61.4256542,17.6948938 L65.1399013,17.6948938 L65.1399013,16.8959665 L61.4256542,16.8959665 L61.4256542,13.7239273 L65.268,13.7239273 L65.268,12.925 L60.564,12.925 L60.564,21.7375 Z M66.444,21.7375 L67.62,21.7375 L67.62,12.925 L66.444,12.925 L66.444,21.7375 Z M69.384,12.925 L69.384,13.7239273 L71.3249937,13.7239273 L71.3249937,21.7375 L72.1699103,21.7375 L72.1699103,13.7239273 L74.088,13.7239273 L74.088,12.925 L69.384,12.925 Z M4.62106502,33.6011876 C4.05569571,33.8754707 3.28928999,33.8754707 2.66104291,33.8635727 L1.51776853,33.8635727 L1.51776853,30.4172504 L2.49774642,30.4172504 C3.11339142,30.4172504 3.79184785,30.4052895 4.36981925,30.5961608 C5.08594928,30.834624 5.53829779,31.430845 5.52569571,32.1821174 C5.53829779,32.7425815 5.14876073,33.3388655 4.62106502,33.6011876 L4.62106502,33.6011876 Z M1.51776853,26.6489903 L2.59823147,26.6489903 C3.15106502,26.6251943 3.8169857,26.6370293 4.29440572,26.9113124 C4.72161639,27.1617995 5.03573993,27.6507498 5.03573993,28.1276762 C5.03573993,28.6165636 4.73415215,29.1293728 4.28186996,29.3559381 C3.75417425,29.6302211 3.11339142,29.6182602 2.52288427,29.6182602 L1.51776853,29.6182602 L1.51776853,26.6489903 Z M4.93518856,29.952159 C5.57590507,29.5229504 5.96544213,28.9505254 5.96544213,28.187355 C5.96544213,27.4241216 5.53829779,26.7086061 4.87237712,26.2912325 C4.23159428,25.8977808 3.50292848,25.85 2.76159428,25.85 L0.588,25.85 L0.588,34.6625 L2.77413004,34.6625 C3.70389857,34.650602 4.50804422,34.6744609 5.3246593,34.1855106 C6.04085566,33.756302 6.468,32.9691468 6.468,32.1702195 C6.468,31.1565619 5.91523278,30.3337757 4.93518856,29.952159 L4.93518856,29.952159 Z M14.112,28.7238972 C14.112,27.6983417 13.6425393,26.7920808 12.7623547,26.2793345 C12.0347123,25.861898 11.1191493,25.85 10.2976395,25.85 L8.232,25.85 L8.232,34.6625 L9.10047443,34.6625 L9.10047443,26.6489903 L10.473664,26.6489903 C11.1544037,26.6489903 11.8585638,26.6489903 12.433726,27.0663638 C12.9266071,27.4121607 13.2435256,28.0323035 13.2435256,28.6404225 C13.2435256,29.4275148 12.8327397,30.0952496 12.1168075,30.4291484 C11.5417692,30.6915335 10.8374852,30.6676746 10.2272545,30.6676746 L9.96901081,30.6676746 L12.9149588,34.6625 L13.9946503,34.6625 L11.5534175,31.3712292 C12.9618615,31.3354723 14.112,30.1667633 14.112,28.7238972 M20.8909892,31.1117647 C20.8909892,31.7914005 20.8325484,32.4828523 20.4116139,33.0453181 C20.0493053,33.5491988 19.4297214,33.8304936 18.8218626,33.8304936 C18.1438378,33.8304936 17.5008651,33.5023679 17.1384949,32.928148 C16.7995134,32.3890668 16.7410725,31.7328155 16.7410725,31.1117647 L16.7410725,25.85 L15.876,25.85 L15.876,31.1117647 C15.876,32.0257406 15.9695547,32.8930094 16.56575,33.6312921 C17.1151062,34.2992357 17.9567901,34.6625 18.8218626,34.6625 C19.7103238,34.6625 20.5753346,34.2757893 21.1130891,33.560953 C21.6741705,32.8344244 21.756,31.9906638 21.756,31.1117647 L21.756,25.85 L20.8909892,25.85 L20.8909892,31.1117647 Z M28.007761,30.3830893 C27.5065116,29.9332147 26.9703728,29.8293928 26.3525794,29.6563969 C25.513328,29.4256748 24.6507556,29.1835049 24.6507556,28.1569165 C24.6507556,27.3494805 25.2918085,26.6689447 26.1311214,26.6689447 C27.0169534,26.6689447 27.6463765,27.2918152 27.7046485,28.1569165 L28.6022333,28.1569165 C28.6138631,26.8534493 27.541524,25.85 26.2360355,25.85 C24.8838434,25.85 23.7881832,26.7727666 23.7881832,28.1453469 C23.7881832,28.7567086 24.0330238,29.3334225 24.5108906,29.7372014 C24.9421768,30.1062715 25.490007,30.2447413 26.0261458,30.3830893 C26.5157655,30.5099895 26.9586199,30.6253201 27.3550168,30.9482945 C27.7163398,31.2367428 27.9494891,31.6980652 27.9494891,32.1595094 C27.9494891,33.1398803 27.1451271,33.8435553 26.1660723,33.8435553 C25.1986472,33.8435553 24.46431,33.0591367 24.4409274,32.1248615 L23.520083,32.1248615 C23.5084532,33.6128332 24.7206573,34.6625 26.1893318,34.6625 C27.5881046,34.6625 28.812,33.5782462 28.812,32.1709572 C28.812,31.4904823 28.5205787,30.8213943 28.007761,30.3830893 M34.4757425,30.3830893 C33.9744814,29.9332147 33.4383918,29.8293928 32.8205841,29.6563969 C31.9812519,29.4256748 31.118721,29.1835049 31.118721,28.1569165 C31.118721,27.3494805 31.7598503,26.6689447 32.599121,26.6689447 C33.4849119,26.6689447 34.1144112,27.2918152 34.1726844,28.1569165 L35.0702285,28.1569165 C35.08192,26.8534493 34.0094946,25.85 32.703976,25.85 C31.3518757,25.85 30.2561902,26.7727666 30.2561902,28.1453469 C30.2561902,28.7567086 30.5009134,29.3334225 30.9788528,29.7372014 C31.410149,30.1062715 31.9579918,30.2447413 32.4942045,30.3830893 C32.9837124,30.5099895 33.4267002,30.6253201 33.8230447,30.9482945 C34.184376,31.2367428 34.4174692,31.6980652 34.4174692,32.1595094 C34.4174692,33.1398803 33.6131501,33.8435553 32.6340112,33.8435553 C31.6666253,33.8435553 30.9322096,33.0591367 30.908888,32.1248615 L29.9880839,32.1248615 C29.9763923,33.6128332 31.1886859,34.6625 32.6573943,34.6625 C34.0561994,34.6625 35.28,33.5782462 35.28,32.1709572 C35.28,31.4904823 34.9886951,30.8213943 34.4757425,30.3830893 M37.044,34.6625 L41.748,34.6625 L41.748,33.8635727 L37.9057044,33.8635727 L37.9057044,30.6199568 L41.619903,30.6199568 L41.619903,29.8209665 L37.9057044,29.8209665 L37.9057044,26.6489903 L41.748,26.6489903 L41.748,25.85 L37.044,25.85 L37.044,34.6625 Z M44.4281243,25.85 L43.512,25.85 L43.512,34.6625 L48.216,34.6625 L48.216,33.8635727 L44.4281243,33.8635727 L44.4281243,25.85 Z M7.77244152,0 L4.39702841,7.71535993 L1.04755848,0 L0,0 L3.94445638,8.8125 L4.84966871,8.8125 L8.82,0 L7.77244152,0 Z" id="Fill-3"></path>
                </g>
                <g id="01-Core/01-Logos/VUB-Icon-Outline" transform="translate(0.000000, 0.293750)">
                    <rect id="Rectangle" stroke="#FFFFFF" x="4.616" y="0.5" width="46.04" height="46"></rect>
                    <path d="M9.86344919,28.7464036 L9.881161,28.7464036 L14.7747988,14.4620692 C14.7747988,14.4620692 14.7818324,14.4414336 14.7936616,14.4123648 C15.1123462,13.3253202 16.1226865,12.53203 17.3136616,12.53203 L18.5408915,12.5315189 L22.3055136,12.53203 L22.3055136,27.3637519 C22.3235451,28.089002 22.4018735,28.7922748 22.7304051,29.4489098 C23.2628463,30.3846689 24.2473542,31.0535703 25.4053355,31.1906727 C25.4448513,31.1954004 25.484559,31.1992975 25.5245225,31.2026835 C25.6297703,31.2117556 25.7363608,31.2166749 25.8441023,31.2168027 C25.9523553,31.2166749 26.0588819,31.2117556 26.1641937,31.2026835 C26.2040932,31.1992975 26.2438648,31.1954004 26.2833807,31.1906727 C27.441362,31.0535703 28.4258059,30.3846689 28.9582471,29.4489098 C29.2868427,28.7922748 29.365171,28.089002 29.3832026,27.3637519 L29.3832026,12.53203 L33.3145842,12.53203 L33.3145842,26.5275933 C33.3145842,28.1029933 33.2168175,29.6131643 32.5800237,30.9724971 C31.4185257,33.273339 28.9974433,34.8873909 26.1690532,35.00258 C26.0614396,35.0069882 25.9533145,35.009352 25.8446138,35.009352 C25.7353377,35.009352 25.6272126,35.0069882 25.5196629,35.00258 C22.691209,34.8873909 20.2701905,33.273339 19.1086924,30.9724971 C18.4718347,29.6131643 18.3740681,28.1029933 18.3740681,26.5275933 L18.3742599,16.6168005 L18.3420973,16.6168005 L18.2972743,16.7532001 L11.8889893,34.4607507 L7.92352683,34.4607507 L4.116,24.1641418 L4.116,19.802036 L4.116,12.5319661 L9.86344919,28.7464036 Z M45.496918,13.354389 C47.3101722,14.2750707 48.5881717,16.2352009 48.5881717,18.2841985 C48.5881717,20.0067313 47.7856415,21.6994926 46.1806449,22.471636 C48.5881717,23.2439711 49.9256369,25.2929687 49.9256369,27.7873255 C49.9256369,29.9257655 48.9449016,31.7372297 47.2506426,33.0141477 C45.496918,34.2912573 43.2676602,34.4098963 41.1574615,34.4691199 L34.5363791,34.4691199 L34.5401516,12.53203 L39.6417273,12.5230858 L40.3454835,12.5211718 C42.1062486,12.5160754 43.8709787,12.5421919 45.496918,13.354389 Z M42.0064797,24.9052577 L38.6290435,24.9055147 L38.6290435,30.5234971 L41.4277995,30.5244565 C42.6153693,30.5244565 43.7137835,30.4652283 44.7825004,29.7514834 C45.5246118,29.2461247 45.8512174,28.5326357 45.8512174,27.6108245 C45.8512174,26.5404951 45.3465561,25.8862982 44.3965003,25.3511335 C43.6296945,24.9547863 42.8214652,24.9093826 42.0064797,24.9052577 Z M40.4759535,16.4797714 L38.6290435,16.4765299 L38.6290435,20.9456522 L40.5056189,20.9409488 L41.0486648,20.9412122 C41.8021152,20.9374962 42.6465671,20.8998385 43.2633521,20.6161598 C44.0345886,20.2614978 44.5090435,19.4342074 44.5090435,18.6069806 C44.5090435,17.7205798 43.9455924,17.0115737 43.1448819,16.6865304 C42.5440461,16.428034 41.3359947,16.4797714 40.4759535,16.4797714 Z" id="Path-2" fill="#FFFFFF" fill-rule="nonzero"></path>
                    <polyline id="Fill-28" fill="#E36539" points="0 12.3375 4.116 24.0875 4.116 12.3375 0 12.3375"></polyline>
                </g>
            </g>
        </g>
    </g>
</svg>
